<mxfile host="Electron" modified="2023-12-07T23:39:16.214Z" agent="Mozilla/5.0 (X11; Linux x86_64) AppleWebKit/537.36 (KHTML, like Gecko) draw.io/22.1.2 Chrome/114.0.5735.289 Electron/25.9.4 Safari/537.36" etag="rql_9k70hhTq_8L1wL_k" version="22.1.2" type="device">
  <diagram name="Page-1" id="lCVeirwDQbOwgkcOnp9V">
    <mxGraphModel dx="1114" dy="663" grid="1" gridSize="10" guides="1" tooltips="1" connect="1" arrows="1" fold="1" page="1" pageScale="1" pageWidth="827" pageHeight="1169" math="0" shadow="0">
      <root>
        <mxCell id="0" />
        <mxCell id="1" parent="0" />
        <mxCell id="VULLdlXlb7VbOicxKjhc-40" value="" style="group;fillColor=#1ba1e2;fontColor=#ffffff;strokeColor=#006EAF;" parent="1" vertex="1" connectable="0">
          <mxGeometry x="14" y="90" width="800" height="60" as="geometry" />
        </mxCell>
        <mxCell id="VULLdlXlb7VbOicxKjhc-1" value="" style="rounded=0;whiteSpace=wrap;html=1;" parent="VULLdlXlb7VbOicxKjhc-40" vertex="1">
          <mxGeometry width="800" height="60" as="geometry" />
        </mxCell>
        <mxCell id="VULLdlXlb7VbOicxKjhc-2" value="" style="endArrow=none;html=1;rounded=0;" parent="VULLdlXlb7VbOicxKjhc-40" edge="1">
          <mxGeometry width="50" height="50" relative="1" as="geometry">
            <mxPoint x="400" y="60" as="sourcePoint" />
            <mxPoint x="400" as="targetPoint" />
          </mxGeometry>
        </mxCell>
        <mxCell id="VULLdlXlb7VbOicxKjhc-3" value="" style="endArrow=none;html=1;rounded=0;" parent="VULLdlXlb7VbOicxKjhc-40" edge="1">
          <mxGeometry width="50" height="50" relative="1" as="geometry">
            <mxPoint x="200" y="60" as="sourcePoint" />
            <mxPoint x="200" as="targetPoint" />
          </mxGeometry>
        </mxCell>
        <mxCell id="VULLdlXlb7VbOicxKjhc-4" value="" style="endArrow=none;html=1;rounded=0;" parent="VULLdlXlb7VbOicxKjhc-40" edge="1">
          <mxGeometry width="50" height="50" relative="1" as="geometry">
            <mxPoint x="600" y="60" as="sourcePoint" />
            <mxPoint x="600" as="targetPoint" />
          </mxGeometry>
        </mxCell>
        <mxCell id="VULLdlXlb7VbOicxKjhc-6" value="" style="endArrow=none;html=1;rounded=0;" parent="VULLdlXlb7VbOicxKjhc-40" edge="1">
          <mxGeometry width="50" height="50" relative="1" as="geometry">
            <mxPoint x="100" y="60" as="sourcePoint" />
            <mxPoint x="100" as="targetPoint" />
          </mxGeometry>
        </mxCell>
        <mxCell id="VULLdlXlb7VbOicxKjhc-8" value="" style="endArrow=none;html=1;rounded=0;" parent="VULLdlXlb7VbOicxKjhc-40" edge="1">
          <mxGeometry width="50" height="50" relative="1" as="geometry">
            <mxPoint x="300" y="60" as="sourcePoint" />
            <mxPoint x="300" as="targetPoint" />
          </mxGeometry>
        </mxCell>
        <mxCell id="VULLdlXlb7VbOicxKjhc-9" value="" style="endArrow=none;html=1;rounded=0;" parent="VULLdlXlb7VbOicxKjhc-40" edge="1">
          <mxGeometry width="50" height="50" relative="1" as="geometry">
            <mxPoint x="500" y="60" as="sourcePoint" />
            <mxPoint x="500" as="targetPoint" />
          </mxGeometry>
        </mxCell>
        <mxCell id="VULLdlXlb7VbOicxKjhc-10" value="" style="endArrow=none;html=1;rounded=0;" parent="VULLdlXlb7VbOicxKjhc-40" edge="1">
          <mxGeometry width="50" height="50" relative="1" as="geometry">
            <mxPoint x="700" y="60" as="sourcePoint" />
            <mxPoint x="700" as="targetPoint" />
          </mxGeometry>
        </mxCell>
        <mxCell id="VULLdlXlb7VbOicxKjhc-11" value="" style="endArrow=none;html=1;rounded=0;" parent="VULLdlXlb7VbOicxKjhc-40" edge="1">
          <mxGeometry width="50" height="50" relative="1" as="geometry">
            <mxPoint x="50" y="60" as="sourcePoint" />
            <mxPoint x="50" as="targetPoint" />
          </mxGeometry>
        </mxCell>
        <mxCell id="VULLdlXlb7VbOicxKjhc-12" value="" style="endArrow=none;html=1;rounded=0;" parent="VULLdlXlb7VbOicxKjhc-40" edge="1">
          <mxGeometry width="50" height="50" relative="1" as="geometry">
            <mxPoint x="150" y="60" as="sourcePoint" />
            <mxPoint x="150" as="targetPoint" />
          </mxGeometry>
        </mxCell>
        <mxCell id="VULLdlXlb7VbOicxKjhc-13" value="" style="endArrow=none;html=1;rounded=0;" parent="VULLdlXlb7VbOicxKjhc-40" edge="1">
          <mxGeometry width="50" height="50" relative="1" as="geometry">
            <mxPoint x="250" y="60" as="sourcePoint" />
            <mxPoint x="250" as="targetPoint" />
          </mxGeometry>
        </mxCell>
        <mxCell id="VULLdlXlb7VbOicxKjhc-14" value="" style="endArrow=none;html=1;rounded=0;" parent="VULLdlXlb7VbOicxKjhc-40" edge="1">
          <mxGeometry width="50" height="50" relative="1" as="geometry">
            <mxPoint x="350" y="60" as="sourcePoint" />
            <mxPoint x="350" as="targetPoint" />
          </mxGeometry>
        </mxCell>
        <mxCell id="VULLdlXlb7VbOicxKjhc-15" value="" style="endArrow=none;html=1;rounded=0;" parent="VULLdlXlb7VbOicxKjhc-40" edge="1">
          <mxGeometry width="50" height="50" relative="1" as="geometry">
            <mxPoint x="450" y="60" as="sourcePoint" />
            <mxPoint x="450" as="targetPoint" />
          </mxGeometry>
        </mxCell>
        <mxCell id="VULLdlXlb7VbOicxKjhc-16" value="" style="endArrow=none;html=1;rounded=0;" parent="VULLdlXlb7VbOicxKjhc-40" edge="1">
          <mxGeometry width="50" height="50" relative="1" as="geometry">
            <mxPoint x="550" y="60" as="sourcePoint" />
            <mxPoint x="550" as="targetPoint" />
          </mxGeometry>
        </mxCell>
        <mxCell id="VULLdlXlb7VbOicxKjhc-17" value="" style="endArrow=none;html=1;rounded=0;" parent="VULLdlXlb7VbOicxKjhc-40" edge="1">
          <mxGeometry width="50" height="50" relative="1" as="geometry">
            <mxPoint x="650" y="60" as="sourcePoint" />
            <mxPoint x="650" as="targetPoint" />
          </mxGeometry>
        </mxCell>
        <mxCell id="VULLdlXlb7VbOicxKjhc-18" value="" style="endArrow=none;html=1;rounded=0;" parent="VULLdlXlb7VbOicxKjhc-40" edge="1">
          <mxGeometry width="50" height="50" relative="1" as="geometry">
            <mxPoint x="750" y="60" as="sourcePoint" />
            <mxPoint x="750" as="targetPoint" />
          </mxGeometry>
        </mxCell>
        <mxCell id="VULLdlXlb7VbOicxKjhc-19" value="1" style="text;align=center;html=1;verticalAlign=middle;whiteSpace=wrap;rounded=0;fillColor=#1ba1e2;fontColor=#ffffff;strokeColor=#006EAF;" parent="VULLdlXlb7VbOicxKjhc-40" vertex="1">
          <mxGeometry y="15" width="50" height="30" as="geometry" />
        </mxCell>
        <mxCell id="VULLdlXlb7VbOicxKjhc-20" value="2" style="text;strokeColor=#006EAF;align=center;fillColor=#1ba1e2;html=1;verticalAlign=middle;whiteSpace=wrap;rounded=0;fontColor=#ffffff;" parent="VULLdlXlb7VbOicxKjhc-40" vertex="1">
          <mxGeometry x="50" y="15" width="50" height="30" as="geometry" />
        </mxCell>
        <mxCell id="VULLdlXlb7VbOicxKjhc-21" value="3" style="text;strokeColor=#006EAF;align=center;fillColor=#1ba1e2;html=1;verticalAlign=middle;whiteSpace=wrap;rounded=0;fontColor=#ffffff;" parent="VULLdlXlb7VbOicxKjhc-40" vertex="1">
          <mxGeometry x="100" y="15" width="50" height="30" as="geometry" />
        </mxCell>
        <mxCell id="VULLdlXlb7VbOicxKjhc-22" value="4" style="text;strokeColor=#006EAF;align=center;fillColor=#1ba1e2;html=1;verticalAlign=middle;whiteSpace=wrap;rounded=0;fontColor=#ffffff;" parent="VULLdlXlb7VbOicxKjhc-40" vertex="1">
          <mxGeometry x="150" y="15" width="50" height="30" as="geometry" />
        </mxCell>
        <mxCell id="VULLdlXlb7VbOicxKjhc-23" value="5" style="text;strokeColor=#BD7000;align=center;fillColor=#f0a30a;html=1;verticalAlign=middle;whiteSpace=wrap;rounded=0;fontColor=#000000;" parent="VULLdlXlb7VbOicxKjhc-40" vertex="1">
          <mxGeometry x="200" y="15" width="50" height="30" as="geometry" />
        </mxCell>
        <mxCell id="VULLdlXlb7VbOicxKjhc-24" value="6" style="text;strokeColor=#BD7000;align=center;fillColor=#f0a30a;html=1;verticalAlign=middle;whiteSpace=wrap;rounded=0;fontColor=#000000;" parent="VULLdlXlb7VbOicxKjhc-40" vertex="1">
          <mxGeometry x="250" y="15" width="50" height="30" as="geometry" />
        </mxCell>
        <mxCell id="VULLdlXlb7VbOicxKjhc-25" value="7" style="text;strokeColor=#2D7600;align=center;fillColor=#60a917;html=1;verticalAlign=middle;whiteSpace=wrap;rounded=0;fontColor=#ffffff;" parent="VULLdlXlb7VbOicxKjhc-40" vertex="1">
          <mxGeometry x="300" y="15" width="50" height="30" as="geometry" />
        </mxCell>
        <mxCell id="VULLdlXlb7VbOicxKjhc-26" value="8" style="text;strokeColor=#2D7600;align=center;fillColor=#60a917;html=1;verticalAlign=middle;whiteSpace=wrap;rounded=0;fontColor=#ffffff;" parent="VULLdlXlb7VbOicxKjhc-40" vertex="1">
          <mxGeometry x="350" y="15" width="50" height="30" as="geometry" />
        </mxCell>
        <mxCell id="VULLdlXlb7VbOicxKjhc-27" value="9" style="text;strokeColor=#2D7600;align=center;fillColor=#60a917;html=1;verticalAlign=middle;whiteSpace=wrap;rounded=0;fontColor=#ffffff;" parent="VULLdlXlb7VbOicxKjhc-40" vertex="1">
          <mxGeometry x="400" y="15" width="50" height="30" as="geometry" />
        </mxCell>
        <mxCell id="VULLdlXlb7VbOicxKjhc-28" value="10" style="text;strokeColor=#2D7600;align=center;fillColor=#60a917;html=1;verticalAlign=middle;whiteSpace=wrap;rounded=0;fontColor=#ffffff;" parent="VULLdlXlb7VbOicxKjhc-40" vertex="1">
          <mxGeometry x="450" y="15" width="50" height="30" as="geometry" />
        </mxCell>
        <mxCell id="VULLdlXlb7VbOicxKjhc-29" value="11" style="text;strokeColor=#2D7600;align=center;fillColor=#60a917;html=1;verticalAlign=middle;whiteSpace=wrap;rounded=0;fontColor=#ffffff;" parent="VULLdlXlb7VbOicxKjhc-40" vertex="1">
          <mxGeometry x="500" y="15" width="50" height="30" as="geometry" />
        </mxCell>
        <mxCell id="VULLdlXlb7VbOicxKjhc-30" value="12" style="text;strokeColor=#B09500;align=center;fillColor=#e3c800;html=1;verticalAlign=middle;whiteSpace=wrap;rounded=0;fontColor=#000000;" parent="VULLdlXlb7VbOicxKjhc-40" vertex="1">
          <mxGeometry x="550" y="15" width="50" height="30" as="geometry" />
        </mxCell>
        <mxCell id="VULLdlXlb7VbOicxKjhc-31" value="13" style="text;strokeColor=#B09500;align=center;fillColor=#e3c800;html=1;verticalAlign=middle;whiteSpace=wrap;rounded=0;fontColor=#000000;" parent="VULLdlXlb7VbOicxKjhc-40" vertex="1">
          <mxGeometry x="600" y="15" width="50" height="30" as="geometry" />
        </mxCell>
        <mxCell id="VULLdlXlb7VbOicxKjhc-37" value="14" style="text;strokeColor=#B09500;align=center;fillColor=#e3c800;html=1;verticalAlign=middle;whiteSpace=wrap;rounded=0;fontColor=#000000;" parent="VULLdlXlb7VbOicxKjhc-40" vertex="1">
          <mxGeometry x="650" y="15" width="50" height="30" as="geometry" />
        </mxCell>
        <mxCell id="VULLdlXlb7VbOicxKjhc-38" value="15" style="text;strokeColor=#B09500;align=center;fillColor=#e3c800;html=1;verticalAlign=middle;whiteSpace=wrap;rounded=0;fontColor=#000000;" parent="VULLdlXlb7VbOicxKjhc-40" vertex="1">
          <mxGeometry x="700" y="15" width="50" height="30" as="geometry" />
        </mxCell>
        <mxCell id="VULLdlXlb7VbOicxKjhc-39" value="16" style="text;strokeColor=#B09500;align=center;fillColor=#e3c800;html=1;verticalAlign=middle;whiteSpace=wrap;rounded=0;fontColor=#000000;" parent="VULLdlXlb7VbOicxKjhc-40" vertex="1">
          <mxGeometry x="750" y="15" width="50" height="30" as="geometry" />
        </mxCell>
        <mxCell id="VULLdlXlb7VbOicxKjhc-41" value="" style="shape=curlyBracket;whiteSpace=wrap;html=1;rounded=1;labelPosition=left;verticalLabelPosition=middle;align=right;verticalAlign=middle;rotation=-90;" parent="1" vertex="1">
          <mxGeometry x="104" y="80" width="20" height="200" as="geometry" />
        </mxCell>
        <mxCell id="VULLdlXlb7VbOicxKjhc-42" value="" style="shape=curlyBracket;whiteSpace=wrap;html=1;rounded=1;labelPosition=left;verticalLabelPosition=middle;align=right;verticalAlign=middle;rotation=-90;" parent="1" vertex="1">
          <mxGeometry x="254" y="130" width="20" height="100" as="geometry" />
        </mxCell>
        <mxCell id="VULLdlXlb7VbOicxKjhc-43" value="" style="shape=curlyBracket;whiteSpace=wrap;html=1;rounded=1;labelPosition=left;verticalLabelPosition=middle;align=right;verticalAlign=middle;rotation=-90;" parent="1" vertex="1">
          <mxGeometry x="429" y="55" width="20" height="250" as="geometry" />
        </mxCell>
        <mxCell id="VULLdlXlb7VbOicxKjhc-44" value="" style="shape=curlyBracket;whiteSpace=wrap;html=1;rounded=1;labelPosition=left;verticalLabelPosition=middle;align=right;verticalAlign=middle;rotation=-90;" parent="1" vertex="1">
          <mxGeometry x="680" y="55" width="20" height="250" as="geometry" />
        </mxCell>
        <mxCell id="VULLdlXlb7VbOicxKjhc-45" value="OPCODE" style="text;strokeColor=none;align=center;fillColor=none;html=1;verticalAlign=middle;whiteSpace=wrap;rounded=0;" parent="1" vertex="1">
          <mxGeometry x="84" y="210" width="60" height="30" as="geometry" />
        </mxCell>
        <mxCell id="VULLdlXlb7VbOicxKjhc-46" value="ADDRESSING MODE" style="text;strokeColor=none;align=center;fillColor=none;html=1;verticalAlign=middle;whiteSpace=wrap;rounded=0;" parent="1" vertex="1">
          <mxGeometry x="234" y="210" width="60" height="30" as="geometry" />
        </mxCell>
        <mxCell id="VULLdlXlb7VbOicxKjhc-47" value="&amp;nbsp;DESTINATION ADDRESS" style="text;strokeColor=none;align=center;fillColor=none;html=1;verticalAlign=middle;whiteSpace=wrap;rounded=0;" parent="1" vertex="1">
          <mxGeometry x="409" y="210" width="60" height="30" as="geometry" />
        </mxCell>
        <mxCell id="VULLdlXlb7VbOicxKjhc-48" value="SOURCE ADDRESS" style="text;strokeColor=none;align=center;fillColor=none;html=1;verticalAlign=middle;whiteSpace=wrap;rounded=0;" parent="1" vertex="1">
          <mxGeometry x="660" y="210" width="60" height="30" as="geometry" />
        </mxCell>
        <mxCell id="VULLdlXlb7VbOicxKjhc-90" value="" style="group;fillColor=#e3c800;fontColor=#000000;strokeColor=#B09500;" parent="1" vertex="1" connectable="0">
          <mxGeometry x="14" y="285" width="800" height="60" as="geometry" />
        </mxCell>
        <mxCell id="VULLdlXlb7VbOicxKjhc-91" value="" style="rounded=0;whiteSpace=wrap;html=1;" parent="VULLdlXlb7VbOicxKjhc-90" vertex="1">
          <mxGeometry width="800" height="60" as="geometry" />
        </mxCell>
        <mxCell id="VULLdlXlb7VbOicxKjhc-92" value="" style="endArrow=none;html=1;rounded=0;" parent="VULLdlXlb7VbOicxKjhc-90" edge="1">
          <mxGeometry width="50" height="50" relative="1" as="geometry">
            <mxPoint x="400" y="60" as="sourcePoint" />
            <mxPoint x="400" as="targetPoint" />
          </mxGeometry>
        </mxCell>
        <mxCell id="VULLdlXlb7VbOicxKjhc-93" value="" style="endArrow=none;html=1;rounded=0;" parent="VULLdlXlb7VbOicxKjhc-90" edge="1">
          <mxGeometry width="50" height="50" relative="1" as="geometry">
            <mxPoint x="200" y="60" as="sourcePoint" />
            <mxPoint x="200" as="targetPoint" />
          </mxGeometry>
        </mxCell>
        <mxCell id="VULLdlXlb7VbOicxKjhc-94" value="" style="endArrow=none;html=1;rounded=0;" parent="VULLdlXlb7VbOicxKjhc-90" edge="1">
          <mxGeometry width="50" height="50" relative="1" as="geometry">
            <mxPoint x="600" y="60" as="sourcePoint" />
            <mxPoint x="600" as="targetPoint" />
          </mxGeometry>
        </mxCell>
        <mxCell id="VULLdlXlb7VbOicxKjhc-95" value="" style="endArrow=none;html=1;rounded=0;" parent="VULLdlXlb7VbOicxKjhc-90" edge="1">
          <mxGeometry width="50" height="50" relative="1" as="geometry">
            <mxPoint x="100" y="60" as="sourcePoint" />
            <mxPoint x="100" as="targetPoint" />
          </mxGeometry>
        </mxCell>
        <mxCell id="VULLdlXlb7VbOicxKjhc-96" value="" style="endArrow=none;html=1;rounded=0;" parent="VULLdlXlb7VbOicxKjhc-90" edge="1">
          <mxGeometry width="50" height="50" relative="1" as="geometry">
            <mxPoint x="300" y="60" as="sourcePoint" />
            <mxPoint x="300" as="targetPoint" />
          </mxGeometry>
        </mxCell>
        <mxCell id="VULLdlXlb7VbOicxKjhc-97" value="" style="endArrow=none;html=1;rounded=0;" parent="VULLdlXlb7VbOicxKjhc-90" edge="1">
          <mxGeometry width="50" height="50" relative="1" as="geometry">
            <mxPoint x="500" y="60" as="sourcePoint" />
            <mxPoint x="500" as="targetPoint" />
          </mxGeometry>
        </mxCell>
        <mxCell id="VULLdlXlb7VbOicxKjhc-98" value="" style="endArrow=none;html=1;rounded=0;" parent="VULLdlXlb7VbOicxKjhc-90" edge="1">
          <mxGeometry width="50" height="50" relative="1" as="geometry">
            <mxPoint x="700" y="60" as="sourcePoint" />
            <mxPoint x="700" as="targetPoint" />
          </mxGeometry>
        </mxCell>
        <mxCell id="VULLdlXlb7VbOicxKjhc-99" value="" style="endArrow=none;html=1;rounded=0;" parent="VULLdlXlb7VbOicxKjhc-90" edge="1">
          <mxGeometry width="50" height="50" relative="1" as="geometry">
            <mxPoint x="50" y="60" as="sourcePoint" />
            <mxPoint x="50" as="targetPoint" />
          </mxGeometry>
        </mxCell>
        <mxCell id="VULLdlXlb7VbOicxKjhc-100" value="" style="endArrow=none;html=1;rounded=0;" parent="VULLdlXlb7VbOicxKjhc-90" edge="1">
          <mxGeometry width="50" height="50" relative="1" as="geometry">
            <mxPoint x="150" y="60" as="sourcePoint" />
            <mxPoint x="150" as="targetPoint" />
          </mxGeometry>
        </mxCell>
        <mxCell id="VULLdlXlb7VbOicxKjhc-101" value="" style="endArrow=none;html=1;rounded=0;" parent="VULLdlXlb7VbOicxKjhc-90" edge="1">
          <mxGeometry width="50" height="50" relative="1" as="geometry">
            <mxPoint x="250" y="60" as="sourcePoint" />
            <mxPoint x="250" as="targetPoint" />
          </mxGeometry>
        </mxCell>
        <mxCell id="VULLdlXlb7VbOicxKjhc-102" value="" style="endArrow=none;html=1;rounded=0;" parent="VULLdlXlb7VbOicxKjhc-90" edge="1">
          <mxGeometry width="50" height="50" relative="1" as="geometry">
            <mxPoint x="350" y="60" as="sourcePoint" />
            <mxPoint x="350" as="targetPoint" />
          </mxGeometry>
        </mxCell>
        <mxCell id="VULLdlXlb7VbOicxKjhc-103" value="" style="endArrow=none;html=1;rounded=0;" parent="VULLdlXlb7VbOicxKjhc-90" edge="1">
          <mxGeometry width="50" height="50" relative="1" as="geometry">
            <mxPoint x="450" y="60" as="sourcePoint" />
            <mxPoint x="450" as="targetPoint" />
          </mxGeometry>
        </mxCell>
        <mxCell id="VULLdlXlb7VbOicxKjhc-104" value="" style="endArrow=none;html=1;rounded=0;" parent="VULLdlXlb7VbOicxKjhc-90" edge="1">
          <mxGeometry width="50" height="50" relative="1" as="geometry">
            <mxPoint x="550" y="60" as="sourcePoint" />
            <mxPoint x="550" as="targetPoint" />
          </mxGeometry>
        </mxCell>
        <mxCell id="VULLdlXlb7VbOicxKjhc-105" value="" style="endArrow=none;html=1;rounded=0;" parent="VULLdlXlb7VbOicxKjhc-90" edge="1">
          <mxGeometry width="50" height="50" relative="1" as="geometry">
            <mxPoint x="650" y="60" as="sourcePoint" />
            <mxPoint x="650" as="targetPoint" />
          </mxGeometry>
        </mxCell>
        <mxCell id="VULLdlXlb7VbOicxKjhc-106" value="" style="endArrow=none;html=1;rounded=0;" parent="VULLdlXlb7VbOicxKjhc-90" edge="1">
          <mxGeometry width="50" height="50" relative="1" as="geometry">
            <mxPoint x="750" y="60" as="sourcePoint" />
            <mxPoint x="750" as="targetPoint" />
          </mxGeometry>
        </mxCell>
        <mxCell id="VULLdlXlb7VbOicxKjhc-107" value="1" style="text;align=center;html=1;verticalAlign=middle;whiteSpace=wrap;rounded=0;fillColor=#1ba1e2;fontColor=#ffffff;strokeColor=#006EAF;" parent="VULLdlXlb7VbOicxKjhc-90" vertex="1">
          <mxGeometry y="15" width="50" height="30" as="geometry" />
        </mxCell>
        <mxCell id="VULLdlXlb7VbOicxKjhc-108" value="2" style="text;strokeColor=#006EAF;align=center;fillColor=#1ba1e2;html=1;verticalAlign=middle;whiteSpace=wrap;rounded=0;fontColor=#ffffff;" parent="VULLdlXlb7VbOicxKjhc-90" vertex="1">
          <mxGeometry x="50" y="15" width="50" height="30" as="geometry" />
        </mxCell>
        <mxCell id="VULLdlXlb7VbOicxKjhc-109" value="3" style="text;strokeColor=#006EAF;align=center;fillColor=#1ba1e2;html=1;verticalAlign=middle;whiteSpace=wrap;rounded=0;fontColor=#ffffff;" parent="VULLdlXlb7VbOicxKjhc-90" vertex="1">
          <mxGeometry x="100" y="15" width="50" height="30" as="geometry" />
        </mxCell>
        <mxCell id="VULLdlXlb7VbOicxKjhc-110" value="4" style="text;strokeColor=#006EAF;align=center;fillColor=#1ba1e2;html=1;verticalAlign=middle;whiteSpace=wrap;rounded=0;fontColor=#ffffff;" parent="VULLdlXlb7VbOicxKjhc-90" vertex="1">
          <mxGeometry x="150" y="15" width="50" height="30" as="geometry" />
        </mxCell>
        <mxCell id="VULLdlXlb7VbOicxKjhc-111" value="5" style="text;strokeColor=#BD7000;align=center;fillColor=#f0a30a;html=1;verticalAlign=middle;whiteSpace=wrap;rounded=0;fontColor=#000000;" parent="VULLdlXlb7VbOicxKjhc-90" vertex="1">
          <mxGeometry x="200" y="15" width="50" height="30" as="geometry" />
        </mxCell>
        <mxCell id="VULLdlXlb7VbOicxKjhc-112" value="6" style="text;strokeColor=#BD7000;align=center;fillColor=#f0a30a;html=1;verticalAlign=middle;whiteSpace=wrap;rounded=0;fontColor=#000000;" parent="VULLdlXlb7VbOicxKjhc-90" vertex="1">
          <mxGeometry x="250" y="15" width="50" height="30" as="geometry" />
        </mxCell>
        <mxCell id="VULLdlXlb7VbOicxKjhc-113" value="7" style="text;strokeColor=#2D7600;align=center;fillColor=#60a917;html=1;verticalAlign=middle;whiteSpace=wrap;rounded=0;fontColor=#ffffff;" parent="VULLdlXlb7VbOicxKjhc-90" vertex="1">
          <mxGeometry x="300" y="15" width="50" height="30" as="geometry" />
        </mxCell>
        <mxCell id="VULLdlXlb7VbOicxKjhc-114" value="8" style="text;strokeColor=#2D7600;align=center;fillColor=#60a917;html=1;verticalAlign=middle;whiteSpace=wrap;rounded=0;fontColor=#ffffff;" parent="VULLdlXlb7VbOicxKjhc-90" vertex="1">
          <mxGeometry x="350" y="15" width="50" height="30" as="geometry" />
        </mxCell>
        <mxCell id="VULLdlXlb7VbOicxKjhc-115" value="9" style="text;strokeColor=#B09500;align=center;fillColor=#e3c800;html=1;verticalAlign=middle;whiteSpace=wrap;rounded=0;fontColor=#000000;" parent="VULLdlXlb7VbOicxKjhc-90" vertex="1">
          <mxGeometry x="400" y="15" width="50" height="30" as="geometry" />
        </mxCell>
        <mxCell id="VULLdlXlb7VbOicxKjhc-116" value="10" style="text;strokeColor=#B09500;align=center;fillColor=#e3c800;html=1;verticalAlign=middle;whiteSpace=wrap;rounded=0;fontColor=#000000;" parent="VULLdlXlb7VbOicxKjhc-90" vertex="1">
          <mxGeometry x="450" y="15" width="50" height="30" as="geometry" />
        </mxCell>
        <mxCell id="VULLdlXlb7VbOicxKjhc-117" value="11" style="text;align=center;html=1;verticalAlign=middle;whiteSpace=wrap;rounded=0;" parent="VULLdlXlb7VbOicxKjhc-90" vertex="1">
          <mxGeometry x="500" y="15" width="50" height="30" as="geometry" />
        </mxCell>
        <mxCell id="VULLdlXlb7VbOicxKjhc-118" value="12" style="text;align=center;html=1;verticalAlign=middle;whiteSpace=wrap;rounded=0;" parent="VULLdlXlb7VbOicxKjhc-90" vertex="1">
          <mxGeometry x="550" y="15" width="50" height="30" as="geometry" />
        </mxCell>
        <mxCell id="VULLdlXlb7VbOicxKjhc-119" value="13" style="text;align=center;html=1;verticalAlign=middle;whiteSpace=wrap;rounded=0;" parent="VULLdlXlb7VbOicxKjhc-90" vertex="1">
          <mxGeometry x="600" y="15" width="50" height="30" as="geometry" />
        </mxCell>
        <mxCell id="VULLdlXlb7VbOicxKjhc-120" value="14" style="text;align=center;html=1;verticalAlign=middle;whiteSpace=wrap;rounded=0;" parent="VULLdlXlb7VbOicxKjhc-90" vertex="1">
          <mxGeometry x="650" y="15" width="50" height="30" as="geometry" />
        </mxCell>
        <mxCell id="VULLdlXlb7VbOicxKjhc-121" value="15" style="text;align=center;html=1;verticalAlign=middle;whiteSpace=wrap;rounded=0;" parent="VULLdlXlb7VbOicxKjhc-90" vertex="1">
          <mxGeometry x="700" y="15" width="50" height="30" as="geometry" />
        </mxCell>
        <mxCell id="VULLdlXlb7VbOicxKjhc-122" value="16" style="text;align=center;html=1;verticalAlign=middle;whiteSpace=wrap;rounded=0;" parent="VULLdlXlb7VbOicxKjhc-90" vertex="1">
          <mxGeometry x="750" y="15" width="50" height="30" as="geometry" />
        </mxCell>
        <mxCell id="VULLdlXlb7VbOicxKjhc-123" value="" style="shape=curlyBracket;whiteSpace=wrap;html=1;rounded=1;labelPosition=left;verticalLabelPosition=middle;align=right;verticalAlign=middle;rotation=-90;" parent="1" vertex="1">
          <mxGeometry x="104" y="275" width="20" height="200" as="geometry" />
        </mxCell>
        <mxCell id="VULLdlXlb7VbOicxKjhc-124" value="" style="shape=curlyBracket;whiteSpace=wrap;html=1;rounded=1;labelPosition=left;verticalLabelPosition=middle;align=right;verticalAlign=middle;rotation=-90;" parent="1" vertex="1">
          <mxGeometry x="254" y="325" width="20" height="100" as="geometry" />
        </mxCell>
        <mxCell id="VULLdlXlb7VbOicxKjhc-125" value="" style="shape=curlyBracket;whiteSpace=wrap;html=1;rounded=1;labelPosition=left;verticalLabelPosition=middle;align=right;verticalAlign=middle;rotation=-90;" parent="1" vertex="1">
          <mxGeometry x="354" y="325" width="20" height="100" as="geometry" />
        </mxCell>
        <mxCell id="VULLdlXlb7VbOicxKjhc-126" value="" style="shape=curlyBracket;whiteSpace=wrap;html=1;rounded=1;labelPosition=left;verticalLabelPosition=middle;align=right;verticalAlign=middle;rotation=-90;" parent="1" vertex="1">
          <mxGeometry x="455" y="325" width="20" height="100" as="geometry" />
        </mxCell>
        <mxCell id="VULLdlXlb7VbOicxKjhc-127" value="OPCODE" style="text;strokeColor=none;align=center;fillColor=none;html=1;verticalAlign=middle;whiteSpace=wrap;rounded=0;" parent="1" vertex="1">
          <mxGeometry x="84" y="405" width="60" height="30" as="geometry" />
        </mxCell>
        <mxCell id="VULLdlXlb7VbOicxKjhc-128" value="ADDRESSING MODE" style="text;strokeColor=none;align=center;fillColor=none;html=1;verticalAlign=middle;whiteSpace=wrap;rounded=0;" parent="1" vertex="1">
          <mxGeometry x="234" y="405" width="60" height="30" as="geometry" />
        </mxCell>
        <mxCell id="VULLdlXlb7VbOicxKjhc-129" value="DESTINATION REGISTER" style="text;strokeColor=none;align=center;fillColor=none;html=1;verticalAlign=middle;whiteSpace=wrap;rounded=0;" parent="1" vertex="1">
          <mxGeometry x="334" y="405" width="60" height="30" as="geometry" />
        </mxCell>
        <mxCell id="VULLdlXlb7VbOicxKjhc-130" value="SOURCE REGISTER" style="text;strokeColor=none;align=center;fillColor=none;html=1;verticalAlign=middle;whiteSpace=wrap;rounded=0;" parent="1" vertex="1">
          <mxGeometry x="435" y="405" width="60" height="30" as="geometry" />
        </mxCell>
        <mxCell id="VULLdlXlb7VbOicxKjhc-172" value="" style="group;fillColor=#1ba1e2;fontColor=#ffffff;strokeColor=#006EAF;" parent="1" vertex="1" connectable="0">
          <mxGeometry x="14" y="475" width="800" height="60" as="geometry" />
        </mxCell>
        <mxCell id="VULLdlXlb7VbOicxKjhc-173" value="" style="rounded=0;whiteSpace=wrap;html=1;" parent="VULLdlXlb7VbOicxKjhc-172" vertex="1">
          <mxGeometry width="800" height="60" as="geometry" />
        </mxCell>
        <mxCell id="VULLdlXlb7VbOicxKjhc-174" value="" style="endArrow=none;html=1;rounded=0;" parent="VULLdlXlb7VbOicxKjhc-172" edge="1">
          <mxGeometry width="50" height="50" relative="1" as="geometry">
            <mxPoint x="400" y="60" as="sourcePoint" />
            <mxPoint x="400" as="targetPoint" />
          </mxGeometry>
        </mxCell>
        <mxCell id="VULLdlXlb7VbOicxKjhc-175" value="" style="endArrow=none;html=1;rounded=0;" parent="VULLdlXlb7VbOicxKjhc-172" edge="1">
          <mxGeometry width="50" height="50" relative="1" as="geometry">
            <mxPoint x="200" y="60" as="sourcePoint" />
            <mxPoint x="200" as="targetPoint" />
          </mxGeometry>
        </mxCell>
        <mxCell id="VULLdlXlb7VbOicxKjhc-176" value="" style="endArrow=none;html=1;rounded=0;" parent="VULLdlXlb7VbOicxKjhc-172" edge="1">
          <mxGeometry width="50" height="50" relative="1" as="geometry">
            <mxPoint x="600" y="60" as="sourcePoint" />
            <mxPoint x="600" as="targetPoint" />
          </mxGeometry>
        </mxCell>
        <mxCell id="VULLdlXlb7VbOicxKjhc-177" value="" style="endArrow=none;html=1;rounded=0;" parent="VULLdlXlb7VbOicxKjhc-172" edge="1">
          <mxGeometry width="50" height="50" relative="1" as="geometry">
            <mxPoint x="100" y="60" as="sourcePoint" />
            <mxPoint x="100" as="targetPoint" />
          </mxGeometry>
        </mxCell>
        <mxCell id="VULLdlXlb7VbOicxKjhc-178" value="" style="endArrow=none;html=1;rounded=0;" parent="VULLdlXlb7VbOicxKjhc-172" edge="1">
          <mxGeometry width="50" height="50" relative="1" as="geometry">
            <mxPoint x="300" y="60" as="sourcePoint" />
            <mxPoint x="300" as="targetPoint" />
          </mxGeometry>
        </mxCell>
        <mxCell id="VULLdlXlb7VbOicxKjhc-179" value="" style="endArrow=none;html=1;rounded=0;" parent="VULLdlXlb7VbOicxKjhc-172" edge="1">
          <mxGeometry width="50" height="50" relative="1" as="geometry">
            <mxPoint x="500" y="60" as="sourcePoint" />
            <mxPoint x="500" as="targetPoint" />
          </mxGeometry>
        </mxCell>
        <mxCell id="VULLdlXlb7VbOicxKjhc-180" value="" style="endArrow=none;html=1;rounded=0;" parent="VULLdlXlb7VbOicxKjhc-172" edge="1">
          <mxGeometry width="50" height="50" relative="1" as="geometry">
            <mxPoint x="700" y="60" as="sourcePoint" />
            <mxPoint x="700" as="targetPoint" />
          </mxGeometry>
        </mxCell>
        <mxCell id="VULLdlXlb7VbOicxKjhc-181" value="" style="endArrow=none;html=1;rounded=0;" parent="VULLdlXlb7VbOicxKjhc-172" edge="1">
          <mxGeometry width="50" height="50" relative="1" as="geometry">
            <mxPoint x="50" y="60" as="sourcePoint" />
            <mxPoint x="50" as="targetPoint" />
          </mxGeometry>
        </mxCell>
        <mxCell id="VULLdlXlb7VbOicxKjhc-182" value="" style="endArrow=none;html=1;rounded=0;" parent="VULLdlXlb7VbOicxKjhc-172" edge="1">
          <mxGeometry width="50" height="50" relative="1" as="geometry">
            <mxPoint x="150" y="60" as="sourcePoint" />
            <mxPoint x="150" as="targetPoint" />
          </mxGeometry>
        </mxCell>
        <mxCell id="VULLdlXlb7VbOicxKjhc-183" value="" style="endArrow=none;html=1;rounded=0;" parent="VULLdlXlb7VbOicxKjhc-172" edge="1">
          <mxGeometry width="50" height="50" relative="1" as="geometry">
            <mxPoint x="250" y="60" as="sourcePoint" />
            <mxPoint x="250" as="targetPoint" />
          </mxGeometry>
        </mxCell>
        <mxCell id="VULLdlXlb7VbOicxKjhc-184" value="" style="endArrow=none;html=1;rounded=0;" parent="VULLdlXlb7VbOicxKjhc-172" edge="1">
          <mxGeometry width="50" height="50" relative="1" as="geometry">
            <mxPoint x="350" y="60" as="sourcePoint" />
            <mxPoint x="350" as="targetPoint" />
          </mxGeometry>
        </mxCell>
        <mxCell id="VULLdlXlb7VbOicxKjhc-185" value="" style="endArrow=none;html=1;rounded=0;" parent="VULLdlXlb7VbOicxKjhc-172" edge="1">
          <mxGeometry width="50" height="50" relative="1" as="geometry">
            <mxPoint x="450" y="60" as="sourcePoint" />
            <mxPoint x="450" as="targetPoint" />
          </mxGeometry>
        </mxCell>
        <mxCell id="VULLdlXlb7VbOicxKjhc-186" value="" style="endArrow=none;html=1;rounded=0;" parent="VULLdlXlb7VbOicxKjhc-172" edge="1">
          <mxGeometry width="50" height="50" relative="1" as="geometry">
            <mxPoint x="550" y="60" as="sourcePoint" />
            <mxPoint x="550" as="targetPoint" />
          </mxGeometry>
        </mxCell>
        <mxCell id="VULLdlXlb7VbOicxKjhc-187" value="" style="endArrow=none;html=1;rounded=0;" parent="VULLdlXlb7VbOicxKjhc-172" edge="1">
          <mxGeometry width="50" height="50" relative="1" as="geometry">
            <mxPoint x="650" y="60" as="sourcePoint" />
            <mxPoint x="650" as="targetPoint" />
          </mxGeometry>
        </mxCell>
        <mxCell id="VULLdlXlb7VbOicxKjhc-188" value="" style="endArrow=none;html=1;rounded=0;" parent="VULLdlXlb7VbOicxKjhc-172" edge="1">
          <mxGeometry width="50" height="50" relative="1" as="geometry">
            <mxPoint x="750" y="60" as="sourcePoint" />
            <mxPoint x="750" as="targetPoint" />
          </mxGeometry>
        </mxCell>
        <mxCell id="VULLdlXlb7VbOicxKjhc-189" value="1" style="text;align=center;html=1;verticalAlign=middle;whiteSpace=wrap;rounded=0;fillColor=#1ba1e2;fontColor=#ffffff;strokeColor=#006EAF;" parent="VULLdlXlb7VbOicxKjhc-172" vertex="1">
          <mxGeometry y="15" width="50" height="30" as="geometry" />
        </mxCell>
        <mxCell id="VULLdlXlb7VbOicxKjhc-190" value="2" style="text;strokeColor=#006EAF;align=center;fillColor=#1ba1e2;html=1;verticalAlign=middle;whiteSpace=wrap;rounded=0;fontColor=#ffffff;" parent="VULLdlXlb7VbOicxKjhc-172" vertex="1">
          <mxGeometry x="50" y="15" width="50" height="30" as="geometry" />
        </mxCell>
        <mxCell id="VULLdlXlb7VbOicxKjhc-191" value="3" style="text;strokeColor=#006EAF;align=center;fillColor=#1ba1e2;html=1;verticalAlign=middle;whiteSpace=wrap;rounded=0;fontColor=#ffffff;" parent="VULLdlXlb7VbOicxKjhc-172" vertex="1">
          <mxGeometry x="100" y="15" width="50" height="30" as="geometry" />
        </mxCell>
        <mxCell id="VULLdlXlb7VbOicxKjhc-192" value="4" style="text;strokeColor=#006EAF;align=center;fillColor=#1ba1e2;html=1;verticalAlign=middle;whiteSpace=wrap;rounded=0;fontColor=#ffffff;" parent="VULLdlXlb7VbOicxKjhc-172" vertex="1">
          <mxGeometry x="150" y="15" width="50" height="30" as="geometry" />
        </mxCell>
        <mxCell id="VULLdlXlb7VbOicxKjhc-193" value="5" style="text;strokeColor=#BD7000;align=center;fillColor=#f0a30a;html=1;verticalAlign=middle;whiteSpace=wrap;rounded=0;fontColor=#000000;" parent="VULLdlXlb7VbOicxKjhc-172" vertex="1">
          <mxGeometry x="200" y="15" width="50" height="30" as="geometry" />
        </mxCell>
        <mxCell id="VULLdlXlb7VbOicxKjhc-194" value="6" style="text;strokeColor=#BD7000;align=center;fillColor=#f0a30a;html=1;verticalAlign=middle;whiteSpace=wrap;rounded=0;fontColor=#000000;" parent="VULLdlXlb7VbOicxKjhc-172" vertex="1">
          <mxGeometry x="250" y="15" width="50" height="30" as="geometry" />
        </mxCell>
        <mxCell id="VULLdlXlb7VbOicxKjhc-195" value="7" style="text;strokeColor=#2D7600;align=center;fillColor=#60a917;html=1;verticalAlign=middle;whiteSpace=wrap;rounded=0;fontColor=#ffffff;" parent="VULLdlXlb7VbOicxKjhc-172" vertex="1">
          <mxGeometry x="300" y="15" width="50" height="30" as="geometry" />
        </mxCell>
        <mxCell id="VULLdlXlb7VbOicxKjhc-196" value="8" style="text;strokeColor=#2D7600;align=center;fillColor=#60a917;html=1;verticalAlign=middle;whiteSpace=wrap;rounded=0;fontColor=#ffffff;" parent="VULLdlXlb7VbOicxKjhc-172" vertex="1">
          <mxGeometry x="350" y="15" width="50" height="30" as="geometry" />
        </mxCell>
        <mxCell id="VULLdlXlb7VbOicxKjhc-197" value="9" style="text;strokeColor=#2D7600;align=center;fillColor=#60a917;html=1;verticalAlign=middle;whiteSpace=wrap;rounded=0;fontColor=#ffffff;" parent="VULLdlXlb7VbOicxKjhc-172" vertex="1">
          <mxGeometry x="400" y="15" width="50" height="30" as="geometry" />
        </mxCell>
        <mxCell id="VULLdlXlb7VbOicxKjhc-198" value="10" style="text;strokeColor=#2D7600;align=center;fillColor=#60a917;html=1;verticalAlign=middle;whiteSpace=wrap;rounded=0;fontColor=#ffffff;" parent="VULLdlXlb7VbOicxKjhc-172" vertex="1">
          <mxGeometry x="450" y="15" width="50" height="30" as="geometry" />
        </mxCell>
        <mxCell id="VULLdlXlb7VbOicxKjhc-199" value="11" style="text;strokeColor=#2D7600;align=center;fillColor=#60a917;html=1;verticalAlign=middle;whiteSpace=wrap;rounded=0;fontColor=#ffffff;" parent="VULLdlXlb7VbOicxKjhc-172" vertex="1">
          <mxGeometry x="500" y="15" width="50" height="30" as="geometry" />
        </mxCell>
        <mxCell id="VULLdlXlb7VbOicxKjhc-200" value="12" style="text;strokeColor=#B09500;align=center;fillColor=#e3c800;html=1;verticalAlign=middle;whiteSpace=wrap;rounded=0;fontColor=#000000;" parent="VULLdlXlb7VbOicxKjhc-172" vertex="1">
          <mxGeometry x="550" y="15" width="50" height="30" as="geometry" />
        </mxCell>
        <mxCell id="VULLdlXlb7VbOicxKjhc-201" value="13" style="text;strokeColor=#B09500;align=center;fillColor=#e3c800;html=1;verticalAlign=middle;whiteSpace=wrap;rounded=0;fontColor=#000000;" parent="VULLdlXlb7VbOicxKjhc-172" vertex="1">
          <mxGeometry x="600" y="15" width="50" height="30" as="geometry" />
        </mxCell>
        <mxCell id="VULLdlXlb7VbOicxKjhc-202" value="14" style="text;strokeColor=#B09500;align=center;fillColor=#e3c800;html=1;verticalAlign=middle;whiteSpace=wrap;rounded=0;fontColor=#000000;" parent="VULLdlXlb7VbOicxKjhc-172" vertex="1">
          <mxGeometry x="650" y="15" width="50" height="30" as="geometry" />
        </mxCell>
        <mxCell id="VULLdlXlb7VbOicxKjhc-203" value="15" style="text;strokeColor=#B09500;align=center;fillColor=#e3c800;html=1;verticalAlign=middle;whiteSpace=wrap;rounded=0;fontColor=#000000;" parent="VULLdlXlb7VbOicxKjhc-172" vertex="1">
          <mxGeometry x="700" y="15" width="50" height="30" as="geometry" />
        </mxCell>
        <mxCell id="VULLdlXlb7VbOicxKjhc-204" value="16" style="text;strokeColor=#B09500;align=center;fillColor=#e3c800;html=1;verticalAlign=middle;whiteSpace=wrap;rounded=0;fontColor=#000000;" parent="VULLdlXlb7VbOicxKjhc-172" vertex="1">
          <mxGeometry x="750" y="15" width="50" height="30" as="geometry" />
        </mxCell>
        <mxCell id="VULLdlXlb7VbOicxKjhc-205" value="" style="shape=curlyBracket;whiteSpace=wrap;html=1;rounded=1;labelPosition=left;verticalLabelPosition=middle;align=right;verticalAlign=middle;rotation=-90;" parent="1" vertex="1">
          <mxGeometry x="104" y="465" width="20" height="200" as="geometry" />
        </mxCell>
        <mxCell id="VULLdlXlb7VbOicxKjhc-206" value="" style="shape=curlyBracket;whiteSpace=wrap;html=1;rounded=1;labelPosition=left;verticalLabelPosition=middle;align=right;verticalAlign=middle;rotation=-90;" parent="1" vertex="1">
          <mxGeometry x="254" y="515" width="20" height="100" as="geometry" />
        </mxCell>
        <mxCell id="VULLdlXlb7VbOicxKjhc-207" value="" style="shape=curlyBracket;whiteSpace=wrap;html=1;rounded=1;labelPosition=left;verticalLabelPosition=middle;align=right;verticalAlign=middle;rotation=-90;" parent="1" vertex="1">
          <mxGeometry x="429" y="440" width="20" height="250" as="geometry" />
        </mxCell>
        <mxCell id="VULLdlXlb7VbOicxKjhc-208" value="" style="shape=curlyBracket;whiteSpace=wrap;html=1;rounded=1;labelPosition=left;verticalLabelPosition=middle;align=right;verticalAlign=middle;rotation=-90;" parent="1" vertex="1">
          <mxGeometry x="680" y="440" width="20" height="250" as="geometry" />
        </mxCell>
        <mxCell id="VULLdlXlb7VbOicxKjhc-209" value="OPCODE" style="text;strokeColor=none;align=center;fillColor=none;html=1;verticalAlign=middle;whiteSpace=wrap;rounded=0;" parent="1" vertex="1">
          <mxGeometry x="84" y="595" width="60" height="30" as="geometry" />
        </mxCell>
        <mxCell id="VULLdlXlb7VbOicxKjhc-210" value="ADDRESSING MODE" style="text;strokeColor=none;align=center;fillColor=none;html=1;verticalAlign=middle;whiteSpace=wrap;rounded=0;" parent="1" vertex="1">
          <mxGeometry x="234" y="595" width="60" height="30" as="geometry" />
        </mxCell>
        <mxCell id="VULLdlXlb7VbOicxKjhc-211" value="&amp;nbsp;DESTINATION ADDRESS" style="text;strokeColor=none;align=center;fillColor=none;html=1;verticalAlign=middle;whiteSpace=wrap;rounded=0;" parent="1" vertex="1">
          <mxGeometry x="409" y="595" width="60" height="30" as="geometry" />
        </mxCell>
        <mxCell id="VULLdlXlb7VbOicxKjhc-212" value="SOURCE ADDRESS" style="text;strokeColor=none;align=center;fillColor=none;html=1;verticalAlign=middle;whiteSpace=wrap;rounded=0;" parent="1" vertex="1">
          <mxGeometry x="660" y="595" width="60" height="30" as="geometry" />
        </mxCell>
        <mxCell id="f-64wNJXAZbLgQyuD5nu-1" value="Actor" style="shape=umlActor;verticalLabelPosition=bottom;verticalAlign=top;html=1;outlineConnect=0;" vertex="1" parent="1">
          <mxGeometry x="120" y="660" width="510" height="300" as="geometry" />
        </mxCell>
      </root>
    </mxGraphModel>
  </diagram>
</mxfile>
